<svg xmlns="http://www.w3.org/2000/svg" width="479.761" height="191.33" viewBox="0 0 479.761 191.33">
  <g id="Group_60" data-name="Group 60" transform="translate(-386.495 -592.738)">
    <g id="Layer_2" data-name="Layer 2" transform="translate(389.326 594.269)">
      <g id="Layer_3" data-name="Layer 3" transform="translate(4 3.06)">
        <path id="Path_1" data-name="Path 1" d="M178.77,65.93s.763,36.392,17.551,84.636" transform="translate(-45.403 -17.954)" fill="none" stroke="#fff" stroke-linecap="round" stroke-miterlimit="10" stroke-width="12"/>
        <path id="Path_2" data-name="Path 2" d="M202.72,140.1s14.049-37.972,49.228-82.56c10.63-12.538,50.884-39.8,82.591-35.278" transform="translate(-51.076 -7.491)" fill="none" stroke="#fff" stroke-linecap="round" stroke-miterlimit="10" stroke-width="12"/>
        <path id="Path_3" data-name="Path 3" d="M217.479,172.43c-10.645,12.53-50.929,39.758-82.629,35.2" transform="translate(-34.998 -43.183)" fill="none" stroke="#fff" stroke-linecap="round" stroke-miterlimit="10" stroke-width="12"/>
        <path id="Path_4" data-name="Path 4" d="M136.856,66.18S122.464,104.03,86.9,148.305C76.159,160.751,35.669,187.658,4,182.858" transform="translate(-4 -18.013)" fill="none" stroke="#fff" stroke-linecap="round" stroke-miterlimit="10" stroke-width="12"/>
        <path id="Path_5" data-name="Path 5" d="M243.13,159.545s9.386-10.317,15.811-18.238l.87-1.068c7.158-8.768,11.4-13.415,17.948-22.2" transform="translate(-60.649 -30.299)" fill="none" stroke="#fff" stroke-linecap="round" stroke-miterlimit="10" stroke-width="12"/>
        <path id="Path_6" data-name="Path 6" d="M264.267,141.12s-.1.244-.252.687c-.8,2.289-3.052,9.882.4,14.323,4.083,5.3,9.2,3.816,11.057,3.22,3.907-1.267,6.1-3.983,11.53-10.294,2.221-2.579,4.891-5.761,7.478-8.883,5.288-6.357,16.353-20.085,16.452-20.184" transform="translate(-65.25 -30.76)" fill="none" stroke="#fff" stroke-linecap="round" stroke-miterlimit="10" stroke-width="12"/>
        <path id="Path_7" data-name="Path 7" d="M300.207,151.22c.13,1.526-6.868,28.83,22.069,9.02" transform="translate(-74.016 -38.159)" fill="none" stroke="#fff" stroke-linecap="round" stroke-miterlimit="10" stroke-width="12"/>
        <path id="Path_8" data-name="Path 8" d="M465.162,143.907c-5.937,10.073,3.869,27.655,41.971,1.7,31.043-21.123,47.389-25.945,68.557-25.182" transform="translate(-112.869 -30.846)" fill="none" stroke="#fff" stroke-linecap="round" stroke-miterlimit="10" stroke-width="12"/>
        <ellipse id="Ellipse_1" data-name="Ellipse 1" cx="22.229" cy="11.424" rx="22.229" ry="11.424" transform="translate(242.012 121.211) rotate(-51.05)" fill="none" stroke="#fff" stroke-miterlimit="10" stroke-width="12"/>
        <line id="Line_1" data-name="Line 1" y1="60.3" x2="43.588" transform="translate(272.893 59.011)" fill="none" stroke="#fff" stroke-linecap="round" stroke-miterlimit="10" stroke-width="12"/>
        <path id="Path_9" data-name="Path 9" d="M367.146,151.22c.122,1.526-6.868,28.83,22.061,9.02" transform="translate(-89.873 -38.159)" fill="none" stroke="#fff" stroke-linecap="round" stroke-miterlimit="10" stroke-width="12"/>
        <ellipse id="Ellipse_2" data-name="Ellipse 2" cx="22.229" cy="11.424" rx="22.229" ry="11.424" transform="translate(293.09 121.218) rotate(-51.05)" fill="none" stroke="#fff" stroke-miterlimit="10" stroke-width="12"/>
        <ellipse id="Ellipse_3" data-name="Ellipse 3" cx="16.689" cy="7.074" rx="16.689" ry="7.074" transform="matrix(0.73, -0.683, 0.683, 0.73, 349.576, 109.46)" fill="none" stroke="#fff" stroke-miterlimit="10" stroke-width="12"/>
        <path id="Path_10" data-name="Path 10" d="M445.77,138.35c-5.113,8.081-57.561,40.628-67.641,46.8-15.163,9.279-20.2,24.122-15.224,28.746s21.313.458,32.226-13.568,18.734-41.085,22.969-54.112" transform="translate(-88.585 -35.11)" fill="none" stroke="#fff" stroke-linecap="round" stroke-miterlimit="10" stroke-width="12"/>
        <path id="Path_11" data-name="Path 11" d="M352.02,32.21l18.429-14.117L352.577,3.06" transform="translate(-86.445 -3.06)" fill="none" stroke="#fff" stroke-miterlimit="10" stroke-width="12"/>
        <path id="Path_12" data-name="Path 12" d="M587.04,130.611l18.429-14.117L587.589,101.46" transform="translate(-142.121 -26.371)" fill="none" stroke="#fff" stroke-miterlimit="10" stroke-width="12"/>
      </g>
    </g>
  </g>
</svg>
